<?xml version="1.0" standalone="no"?>
<!DOCTYPE svg PUBLIC "-//W3C//DTD SVG 20010904//EN"
 "http://www.w3.org/TR/2001/REC-SVG-20010904/DTD/svg10.dtd">
<svg version="1.0" xmlns="http://www.w3.org/2000/svg"
 width="531.000000pt" height="138.000000pt" viewBox="0 0 531.000000 138.000000"
 preserveAspectRatio="xMidYMid meet">

<g transform="translate(0.000000,138.000000) scale(0.100000,-0.100000)"
fill="#000000" stroke="none">
<path d="M3800 1146 c-8 -10 -7 -15 2 -18 16 -6 38 1 38 12 0 15 -28 19 -40 6z"/>
<path d="M1440 1120 c0 -19 8 -20 270 -20 263 0 270 1 270 20 0 19 -7 20 -270
20 -262 0 -270 -1 -270 -20z"/>
<path d="M4872 1128 c-9 -9 -9 -15 1 -27 8 -9 8 -12 1 -8 -19 11 -25 -45 -6
-59 10 -7 13 -19 9 -35 -4 -15 0 -30 10 -41 15 -17 18 -17 34 -2 13 12 17 24
12 42 -4 17 -1 29 10 36 24 19 11 61 -20 64 -36 3 -43 12 -10 12 30 0 36 14
11 24 -23 9 -39 7 -52 -6z"/>
<path d="M3770 1100 c0 -13 5 -18 15 -14 8 4 15 12 15 20 0 8 -7 14 -15 14 -8
0 -15 -9 -15 -20z"/>
<path d="M3837 1114 c-8 -8 1 -24 14 -24 5 0 9 7 9 15 0 15 -12 20 -23 9z"/>
<path d="M4283 1063 c9 -2 23 -2 30 0 6 3 -1 5 -18 5 -16 0 -22 -2 -12 -5z"/>
<path d="M4363 1063 c9 -2 25 -2 35 0 9 3 1 5 -18 5 -19 0 -27 -2 -17 -5z"/>
<path d="M1088 1018 c-2 -6 -2 -106 -1 -222 4 -193 6 -215 26 -255 86 -172
351 -134 386 56 17 91 -13 170 -86 228 -31 25 -49 30 -105 33 -46 3 -76 -1
-97 -11 -16 -8 -32 -12 -35 -9 -3 3 -6 42 -6 87 0 50 -5 86 -12 93 -15 15 -65
16 -70 0z m266 -253 c38 -18 76 -80 76 -121 0 -59 -72 -134 -128 -134 -39 0
-85 28 -109 65 -43 66 -21 149 49 187 41 22 71 22 112 3z"/>
<path d="M2025 1011 c-56 -16 -145 -67 -161 -92 -3 -6 5 -22 18 -36 l25 -25
49 35 c158 113 384 50 460 -129 23 -52 23 -176 1 -227 -9 -21 -30 -56 -47 -77
-35 -44 -38 -70 -10 -95 20 -18 21 -18 54 14 43 41 71 99 93 189 15 63 15 81
4 135 -32 161 -133 274 -280 312 -75 19 -130 18 -206 -4z"/>
<path d="M3746 1021 c-17 -7 -17 -8 -2 -24 20 -20 37 -22 54 -5 9 9 7 14 -6
24 -19 15 -20 15 -46 5z"/>
<path d="M4189 1003 c-6 -16 -13 -50 -16 -77 -6 -46 -5 -48 15 -42 19 7 21 4
17 -38 -4 -35 -1 -47 12 -54 13 -8 21 0 41 40 21 42 23 52 12 78 -7 16 -23 41
-36 55 -32 35 -32 57 1 49 15 -4 25 -2 25 5 0 6 -14 11 -30 11 -24 0 -33 -6
-41 -27z"/>
<path d="M4420 1020 c0 -8 9 -10 25 -6 20 5 25 3 25 -13 0 -11 -8 -26 -17 -33
-10 -7 -27 -30 -37 -51 -19 -37 -19 -37 1 -60 23 -24 63 -92 63 -107 0 -7 -50
-22 -82 -25 -3 0 -10 -3 -14 -7 -12 -13 -61 -9 -104 8 -41 16 -52 15 -56 -9
-1 -7 -5 -29 -9 -50 l-7 -37 246 0 c148 1 246 5 246 11 0 5 -12 19 -26 32 -14
12 -35 39 -45 60 -19 37 -44 56 -56 43 -3 -3 0 -12 6 -20 10 -12 7 -14 -25
-11 -25 2 -44 11 -56 27 -17 23 -25 63 -10 56 47 -23 60 -32 56 -40 -9 -14 23
-9 35 6 15 18 1 56 -40 107 -16 21 -36 57 -42 81 -11 38 -17 43 -45 46 -20 2
-32 -1 -32 -8z"/>
<path d="M4280 1013 c1 -18 18 -35 24 -24 4 6 1 11 -6 12 -7 0 -4 4 7 9 19 8
19 9 -2 9 -13 1 -23 -2 -23 -6z"/>
<path d="M4377 999 c4 -16 8 -17 14 -7 13 19 11 28 -5 28 -9 0 -12 -7 -9 -21z"/>
<path d="M3707 993 c-13 -12 -7 -41 9 -47 12 -4 14 -14 9 -36 -7 -32 11 -66
69 -128 25 -27 30 -39 27 -72 -2 -31 1 -40 13 -40 9 0 16 5 16 10 0 6 -4 10
-10 10 -15 0 -12 47 3 53 9 4 9 8 -1 15 -11 7 -4 23 33 71 40 53 45 65 38 88
-15 45 -28 37 -63 -37 l-32 -72 -29 61 c-34 71 -34 70 -11 87 16 12 15 13 -7
14 -14 0 -32 7 -41 15 -9 8 -20 12 -23 8z"/>
<path d="M3236 974 c-12 -12 -15 -31 -12 -81 3 -36 9 -70 15 -76 6 -6 11 -36
12 -66 1 -31 5 -67 9 -81 7 -22 8 -20 9 15 1 30 4 36 13 27 20 -20 28 -14 26
17 -1 18 -9 31 -19 34 -12 3 -17 21 -22 68 -6 70 -3 81 16 57 6 -9 21 -20 32
-26 11 -6 14 -12 8 -12 -7 0 -13 -9 -13 -19 0 -10 -7 -21 -15 -25 -8 -3 -12
-12 -9 -21 5 -11 10 -13 19 -5 6 5 15 7 18 3 4 -3 7 5 7 19 0 14 3 40 6 57 6
29 9 31 50 31 37 0 44 3 44 20 0 19 -6 22 -54 24 -11 1 -24 10 -30 21 -6 11
-15 23 -21 27 -18 13 -73 8 -89 -8z"/>
<path d="M4328 923 c7 -3 16 -2 19 1 4 3 -2 6 -13 5 -11 0 -14 -3 -6 -6z"/>
<path d="M5100 910 l-45 -7 53 -1 c29 -1 52 2 52 8 0 6 -3 9 -7 8 -5 0 -28 -4
-53 -8z"/>
<path d="M210 895 c0 -12 18 -15 105 -15 87 0 105 3 105 15 0 12 -18 15 -105
15 -87 0 -105 -3 -105 -15z"/>
<path d="M5137 883 c-12 -11 -8 -23 8 -23 8 0 15 7 15 15 0 16 -12 20 -23 8z"/>
<path d="M4112 860 c-6 -11 -12 -28 -12 -38 0 -10 -13 -33 -29 -51 -16 -17
-31 -49 -35 -69 -11 -67 -9 -72 27 -72 28 0 35 5 45 33 7 18 12 47 12 64 0 17
9 42 20 56 24 31 25 45 2 75 -17 22 -17 22 -30 2z"/>
<path d="M4976 858 c-9 -5 -25 -6 -36 -3 -15 5 -18 3 -14 -9 4 -10 -3 -23 -16
-34 l-23 -18 31 -43 c29 -40 30 -45 17 -64 -27 -39 -16 -40 28 -3 80 68 87 76
94 106 7 37 11 40 62 42 57 2 51 18 -6 18 -27 0 -64 4 -84 9 -21 5 -43 4 -53
-1z"/>
<path d="M1650 852 c-92 -45 -110 -89 -110 -270 l0 -142 45 0 45 0 -7 138 -6
137 27 33 c35 41 85 44 121 7 24 -23 25 -29 25 -158 0 -147 4 -157 58 -157
l33 0 -3 148 c-3 163 -13 196 -70 241 -23 19 -46 26 -87 28 -31 1 -63 -1 -71
-5z"/>
<path d="M2040 838 c-28 -14 -57 -40 -76 -70 -91 -135 -21 -303 138 -333 38
-7 144 10 153 25 3 5 -5 21 -18 36 -22 25 -29 27 -86 25 -60 -2 -63 -1 -102
37 -35 36 -39 45 -39 89 0 44 5 55 35 86 41 42 90 55 136 37 29 -12 69 -54 69
-71 0 -5 -40 -9 -90 -9 -57 0 -90 -4 -90 -11 0 -5 15 -23 32 -40 32 -28 35
-29 136 -29 l104 0 -4 59 c-8 108 -83 182 -192 189 -49 3 -70 -1 -106 -20z"/>
<path d="M5267 834 c-4 -4 -7 -28 -7 -53 l1 -46 19 24 c11 13 20 29 20 35 0
18 -25 48 -33 40z"/>
<path d="M210 815 c0 -12 18 -15 105 -15 87 0 105 3 105 15 0 12 -18 15 -105
15 -87 0 -105 -3 -105 -15z"/>
<path d="M3900 788 c0 -24 5 -50 10 -58 7 -11 9 1 8 38 0 29 -5 55 -9 58 -5 3
-9 -14 -9 -38z"/>
<path d="M5136 801 c-4 -5 -2 -12 3 -15 5 -4 12 -2 15 3 4 5 2 12 -3 15 -5 4
-12 2 -15 -3z"/>
<path d="M3595 771 c-3 -6 4 -15 15 -21 11 -6 27 -24 35 -40 8 -16 29 -37 47
-46 l31 -16 -7 58 c-4 32 -8 59 -9 60 -11 8 -107 12 -112 5z"/>
<path d="M3531 709 c-2 -82 20 -109 91 -109 l48 0 -17 28 c-9 15 -34 45 -55
66 -21 22 -38 48 -38 58 0 10 -6 18 -14 18 -9 0 -14 -17 -15 -61z"/>
<path d="M5135 760 c-3 -5 1 -10 9 -10 9 0 16 5 16 10 0 6 -4 10 -9 10 -6 0
-13 -4 -16 -10z"/>
<path d="M210 735 c0 -12 18 -15 105 -15 87 0 105 3 105 15 0 12 -18 15 -105
15 -87 0 -105 -3 -105 -15z"/>
<path d="M5061 736 c11 -9 99 -15 99 -6 0 6 -23 10 -52 10 -28 0 -49 -2 -47
-4z"/>
<path d="M3925 690 c2 -14 5 -33 5 -42 0 -11 8 -18 20 -18 23 0 27 25 5 34 -9
3 -20 16 -26 28 -9 22 -9 22 -4 -2z"/>
<path d="M5135 680 c5 -17 2 -19 -29 -15 -19 3 -38 0 -41 -5 -4 -6 11 -10 37
-10 31 0 39 -3 28 -10 -12 -8 -12 -10 5 -10 16 0 20 7 21 35 1 24 -4 35 -13
35 -10 0 -12 -6 -8 -20z"/>
<path d="M3231 634 c0 -11 3 -14 6 -6 3 7 2 16 -1 19 -3 4 -6 -2 -5 -13z"/>
<path d="M3326 625 c2 -11 4 -24 4 -28 0 -5 5 -5 10 -2 6 3 10 16 10 28 0 17
-2 19 -9 8 -8 -12 -10 -12 -14 0 -2 8 -3 5 -1 -6z"/>
<path d="M4890 640 c-9 -6 -10 -10 -3 -10 6 0 15 5 18 10 8 12 4 12 -15 0z"/>
<path d="M3785 570 c-10 -11 -29 -20 -42 -20 -12 0 -23 -5 -23 -11 0 -14 72
-2 82 14 8 12 11 37 5 37 -2 0 -12 -9 -22 -20z"/>
<path d="M1087 364 c-4 -4 -7 -22 -7 -41 0 -28 4 -33 23 -33 13 0 28 5 35 12
9 9 12 9 12 0 0 -18 40 -15 47 4 3 8 -2 23 -11 32 -16 16 -18 16 -30 0 -17
-24 -24 -23 -28 4 -3 23 -27 35 -41 22z m93 -44 c0 -5 -4 -10 -10 -10 -5 0
-10 5 -10 10 0 6 5 10 10 10 6 0 10 -4 10 -10z"/>
<path d="M1210 336 c0 -19 5 -38 10 -41 6 -4 10 10 10 34 0 23 -4 41 -10 41
-5 0 -10 -15 -10 -34z"/>
<path d="M1381 328 c1 -34 2 -38 8 -18 7 24 7 24 21 4 17 -23 90 -33 90 -12 0
9 3 9 12 0 17 -17 44 -16 29 1 -8 10 -7 17 1 25 19 19 0 27 -21 8 -17 -16 -19
-16 -25 0 -4 10 -13 14 -26 11 -13 -3 -20 0 -20 9 0 24 -20 15 -21 -8 l0 -23
-16 23 c-23 33 -33 27 -32 -20z"/>
<path d="M1790 336 c0 -19 5 -38 10 -41 6 -4 10 10 10 34 0 23 -4 41 -10 41
-5 0 -10 -15 -10 -34z"/>
<path d="M1867 350 c-11 -10 -17 -27 -15 -37 4 -21 48 -32 48 -12 0 10 3 10
12 1 18 -18 36 -14 43 9 9 27 -10 48 -27 31 -18 -18 -28 -15 -28 8 0 25 -9 25
-33 0z m13 -36 c0 -8 -5 -12 -10 -9 -6 4 -8 11 -5 16 9 14 15 11 15 -7z"/>
<path d="M2000 330 c0 -35 3 -40 23 -40 18 0 19 2 7 10 -13 9 -13 11 0 20 10
6 11 10 3 10 -7 0 -13 6 -13 14 0 8 6 17 13 19 6 3 2 6 -10 6 -20 1 -23 -4
-23 -39z"/>
<path d="M2213 356 c8 -20 -4 -28 -19 -15 -24 19 -44 2 -44 -36 l0 -36 29 21
c16 11 32 17 35 12 3 -5 21 -9 41 -10 34 -1 36 1 33 25 -4 37 -25 40 -40 6
l-12 -28 -4 38 c-2 20 -8 37 -14 37 -5 0 -8 -6 -5 -14z m-36 -48 c-3 -8 -6 -5
-6 6 -1 11 2 17 5 13 3 -3 4 -12 1 -19z"/>
<path d="M1252 322 c2 -27 5 -29 46 -30 41 0 43 1 40 26 -4 32 -27 41 -35 13
-7 -27 -23 -27 -30 -1 -8 30 -24 24 -21 -8z"/>
<path d="M1570 320 c0 -16 5 -30 10 -30 6 0 10 14 10 30 0 17 -4 30 -10 30 -5
0 -10 -13 -10 -30z"/>
<path d="M1612 341 c-21 -13 -10 -46 16 -49 20 -3 23 0 20 24 -3 30 -16 38
-36 25z m23 -21 c3 -5 1 -10 -4 -10 -6 0 -11 5 -11 10 0 6 2 10 4 10 3 0 8 -4
11 -10z"/>
<path d="M1667 336 c-2 -6 -1 -20 3 -30 6 -18 7 -18 15 5 l8 24 4 -22 c2 -13
9 -23 14 -23 11 0 12 30 1 46 -9 14 -40 14 -45 0z"/>
<path d="M1737 329 c-8 -29 -1 -39 24 -39 16 0 20 6 17 27 -4 35 -33 43 -41
12z"/>
<path d="M2068 342 c-11 -2 -18 -13 -18 -28 0 -30 17 -32 23 -1 l4 22 2 -22
c1 -28 21 -31 21 -3 0 11 5 20 10 20 6 0 10 -10 10 -22 0 -17 3 -19 12 -10 27
27 -15 55 -64 44z"/>
<path d="M2310 335 c-10 -12 -10 -18 0 -30 16 -19 39 -19 46 0 6 15 -11 45
-26 45 -4 0 -13 -7 -20 -15z m27 -27 c-3 -8 -6 -5 -6 6 -1 11 2 17 5 13 3 -3
4 -12 1 -19z"/>
<path d="M3340 326 c0 -17 -62 -28 -72 -12 -5 6 -8 2 -8 -11 0 -16 5 -20 19
-16 16 4 18 0 13 -45 -5 -56 -5 -55 81 -68 46 -6 66 -24 27 -24 -11 0 -20 -6
-20 -14 0 -8 -7 -17 -16 -20 -25 -9 -30 2 -9 18 17 12 16 13 -9 20 -17 4 -39
1 -57 -8 l-30 -15 7 37 7 37 -32 -34 c-29 -31 -33 -33 -48 -19 -14 14 -14 19
-1 37 8 11 18 18 21 14 4 -3 7 -1 7 5 0 13 -20 16 -35 4 -12 -9 -16 -30 -18
-103 -2 -75 11 -90 70 -82 36 5 47 3 55 -10 8 -15 36 -17 253 -17 l245 0 0 48
c0 26 2 84 3 130 3 92 11 84 -92 84 -31 0 -56 -5 -61 -12 -5 -8 -9 -9 -11 -1
-2 6 -35 11 -79 12 -55 1 -80 6 -95 19 -11 10 -34 21 -52 25 -17 3 -34 13 -37
21 -7 18 -26 18 -26 0z m218 -83 c-10 -2 -26 -2 -35 0 -10 3 -2 5 17 5 19 0
27 -2 18 -5z m55 0 c-7 -2 -19 -2 -25 0 -7 3 -2 5 12 5 14 0 19 -2 13 -5z
m-131 -113 c34 0 58 -3 54 -7 -11 -11 -129 -3 -141 9 -7 8 -4 9 8 4 10 -3 46
-6 79 -6z m-272 -33 c11 3 20 0 20 -6 0 -15 -43 -8 -46 8 -1 6 0 7 2 2 3 -5
14 -7 24 -4z m85 -47 c-8 -13 -35 -13 -35 0 0 6 9 10 21 10 11 0 17 -4 14 -10z
m50 0 c-3 -5 -14 -10 -23 -10 -15 0 -15 2 -2 10 20 13 33 13 25 0z"/>
</g>
</svg>
